<?xml version="1.0" encoding="utf-8" ?><svg xmlns="http://www.w3.org/2000/svg" width="1024" height="1024" viewBox="100 100 824 620"><path fill="#f0f0f0" d="M556.814 146.69C558.954 146.374 562.105 146.396 564.352 146.305C593.781 145.126 624.124 155.312 646.205 175.084C664.303 191.471 676.929 213.022 682.376 236.82C687.096 256.705 686.086 276.461 686.095 296.77L686.266 361.868C686.328 377.589 686.006 393.376 687.482 409.018C691.209 446.056 702.147 482.008 719.681 514.846C748.617 569.655 793.315 609.622 849.161 635.796C861.897 641.765 858.09 658.755 847.072 665.897C836.626 670.587 824.626 661.99 815.688 657.186C802.346 650.015 789.545 641.343 777.389 632.329C716.748 588.001 674.217 523.206 657.667 449.936C647.154 401.971 650.363 351.724 650.269 302.883C650.199 266.18 652.402 236.396 630.004 204.126C615.452 183.16 599.29 170.564 576.432 159.528C566.873 154.913 557.025 151.856 547.332 147.773L556.814 146.69Z"/><path fill="#f0f0f0" d="M452.364 146.219C460.539 145.776 470.354 146.748 478.476 147.843C470.207 151.367 462.902 153.178 453.817 157.417C422.358 172.096 395.804 192.926 382.653 226.191C371.02 255.619 373.964 284.597 373.434 315.231C372.922 344.895 374.575 376.845 372.651 406.141C370.64 435.311 364.361 464.029 354.015 491.377C324.621 568.45 266.37 631.048 191.608 665.903C189.848 666.521 188.195 667.122 186.333 667.341C181.609 667.898 176.872 666.422 173.3 663.281C165.739 656.744 164.656 645.367 172.082 638.255C175.545 634.937 180.769 632.877 185.105 630.788C189.029 628.888 192.9 626.882 196.715 624.772C252.181 594.091 295.111 544.907 318.013 485.803C328.635 459.344 335.098 431.401 337.174 402.965C338.121 389.803 337.701 373.797 337.696 360.447L337.848 295.893C337.911 277.978 337.163 262.419 340.502 244.592C351.084 188.101 394.445 149.265 452.364 146.219Z"/><path fill="#f0f0f0" d="M567.718 161.003C572.688 160.14 591.131 174.913 595.042 178.541C603.206 186.196 610.214 194.997 615.847 204.668C636.445 239.647 633.591 275.298 633.582 314.074L633.538 374.201C633.529 385.667 633.485 397.035 633.741 408.499C635.641 493.477 678.226 565.014 745.008 616.264C752.403 621.825 760.015 627.092 767.826 632.053C770.191 633.581 776.965 637.583 778.846 639.134C780.471 640.479 781.842 642.106 782.894 643.935C784.973 647.614 785.406 651.998 784.088 656.013C781.079 665.347 772.659 668.094 763.836 665.353C746.558 657.377 724.069 640.771 709.236 629.251C644.395 578.894 605.004 504.573 599.081 422.748C597.324 398.474 597.998 372.137 597.98 347.263L597.942 297.827C597.918 270.576 598.739 250.706 587.462 224.854C576.681 200.142 563.657 187.129 543.094 170.693C551.037 166.825 559.27 163.585 567.718 161.003Z"/><path fill="#f0f0f0" d="M456.924 159.96C463.589 161.278 475.79 167.026 482.557 170.023C425.442 212.356 426.398 248.973 426.75 313.236C426.86 332.808 426.863 352.38 426.757 371.952C426.542 413.929 426.21 443.639 413.443 484.773C388.645 562.229 334.455 626.869 262.516 664.805C258.227 666.676 254.012 667.449 249.454 665.982C245.303 664.61 241.892 661.601 240.013 657.654C238.816 655.193 238.275 652.466 238.442 649.735C238.963 641.984 244.833 638.214 250.934 634.794C296.161 609.445 337.722 566.399 361.742 520.417C379.076 486.807 388.947 449.851 390.681 412.075C391.426 398.521 391.182 383.509 391.187 369.838L391.157 303C391.15 274.034 389.719 252.969 399.803 224.868C409.898 196.737 429.784 172.949 456.924 159.96Z"/><path fill="#f0f0f0" d="M538.545 173.865C540.811 174.494 544.884 178.84 546.636 180.576C557.94 191.778 566.525 204.109 572.225 219.031C576.887 231.253 579.904 244.039 581.197 257.056C582.534 271.646 581.892 292.513 581.91 307.499L581.787 399.607C581.746 450.593 590.021 485.035 568.087 534.254L566.203 531.187C542.291 486.89 545.627 441.028 545.595 392.636L545.575 308.99C545.565 265.041 547.076 228.376 516.86 191.92C524.232 184.476 529.63 179.522 538.545 173.865Z"/><path fill="#f0f0f0" d="M487.019 173.34C491.694 174.334 505.891 187.559 509.993 191.413C477.187 230.5 478.52 260.766 478.614 308.005L478.589 410.493C478.455 456.077 481.148 479.22 460.06 521.246L457.101 526.457C447.258 507.414 443.629 485.351 441.423 464.235C439.581 446.6 442.607 428.86 442.587 411.236C442.583 407.764 442.588 404.292 442.583 400.82L442.483 312.237C442.463 277.82 440.342 246.476 455.506 214.436C463.641 197.248 472.132 185.396 487.019 173.34Z"/><path fill="#f0f0f0" d="M513.164 196.313C517.82 201.214 523.911 213.765 526.405 220.003C533.403 237.514 531.571 257.802 531.525 276.471L531.422 339.513L531.484 409.129C531.51 434.547 531.857 458.367 528.237 483.678C525.477 502.982 520.055 517.417 512.301 534.989L511.505 535.253C503.06 517.558 497.371 498.676 494.635 479.261C491.487 458.043 492.01 437.033 491.999 415.652L491.984 344.194L492.056 286.08C492.113 271.483 491.682 254.35 494.185 240.188C496.911 224.256 503.42 209.21 513.164 196.313Z"/><path fill="#f0f0f0" d="M437.715 473.851C439.764 477.492 441.997 500.577 445.093 508.04C448.151 515.411 450.992 524.552 454.495 532.445C450.794 538.173 447.119 545.448 443.462 551.523C418.06 593.315 383.385 628.703 342.12 654.952C335.007 659.467 326.274 665.836 318.265 667.816C302.532 669.423 292.961 648.202 311.951 637.064C360.897 608.359 403.637 562.362 425.925 509.913C430.94 498.112 434.151 486.173 437.715 473.851Z"/><path fill="#f0f0f0" d="M586.688 474.674C590.024 486.664 593.593 498.992 598.526 510.48C618.69 557.446 654.597 597.585 696.014 626.997C702.116 631.323 708.66 635.029 714.412 639.827C725.3 648.908 721.848 667.995 705.875 667.884C698.304 666.898 686.684 658.226 679.998 653.923C634.324 624.808 596.781 584.584 570.879 537.014C580.185 517.471 585.556 496.289 586.688 474.674Z"/><path fill="#f0f0f0" d="M460.587 549.792C462.019 551.589 467.342 561.126 468.685 563.478C472.759 570.611 476.427 576.1 481.174 582.788C457.329 613.042 417.774 651.122 382.522 667.729C377.961 668.749 374.964 668.937 370.567 666.629C367.029 664.8 364.371 661.632 363.184 657.831C359.089 644.429 373.78 637.796 382.668 631.71C385.606 629.698 388.545 627.673 391.351 625.478C412.399 608.863 431.268 589.66 447.513 568.325C452.204 562.274 456.84 556.501 460.587 549.792Z"/><path fill="#f0f0f0" d="M511.304 548.772C512.653 549.828 515.184 554.567 516.241 556.348C525.037 571.033 535.09 584.929 546.285 597.879C556.652 609.642 568.107 620.398 580.499 630.004C585.549 633.877 594.334 639.958 598.273 645.268C599.366 648.616 600.127 652.77 599.013 656.22C595.496 667.113 587.857 668.546 578.342 665.703C547.281 650.214 506.693 612.029 488.239 582.736C496.52 572.269 504.427 560.203 511.304 548.772Z"/><path fill="#f0f0f0" d="M565.213 552.85C567.878 555.929 570.084 559.613 572.446 562.937C575.339 567.009 578.453 570.883 581.571 574.78C594.682 591.166 609.671 605.679 625.659 619.249C631.21 623.96 658.659 643.232 659.779 647.683C659.835 647.908 659.873 648.137 659.925 648.362C660.449 650.611 660.787 652.688 660.501 655.006C659.992 659.009 657.906 662.644 654.706 665.103C650.17 668.563 646.122 668.372 640.913 667.665C635.084 665.223 626.318 659.265 620.852 655.74C591.178 636.605 567.132 612.881 545.029 585.386C551.78 576.428 559.617 562.61 565.213 552.85Z"/><path fill="#f0f0f0" d="M485.352 589.9C492.195 598.968 500.866 609.506 508.651 617.666C503.585 621.829 498.479 627.112 493.233 631.456C479.214 643.066 462.568 656.234 446.803 665.084C441.52 667.545 435.261 667.994 430.44 664.255C427.098 661.639 425.007 657.74 424.677 653.509C424.344 649.61 425.525 645.732 427.977 642.682C431.048 638.935 446.476 627.469 451.3 623.446C463.585 613.254 474.978 602.031 485.352 589.9Z"/><path fill="#f0f0f0" d="M538.668 472.974C540.732 479.926 542.201 490.089 544.358 498.006C548.85 514.488 555.439 529.153 562.99 544.425C559.588 550.076 545.982 578.159 540.596 581.631C531.329 570.828 521.398 554.342 514.993 541.751C523.749 525.571 530.876 506.98 535.522 489.187C536.903 483.895 537.554 478.356 538.668 472.974Z"/><path fill="#f0f0f0" d="M484.314 473.254C485.172 475.303 488.68 491.459 489.614 494.924C493.954 511.2 500.302 526.872 508.512 541.58C502.677 553.683 492.866 567.649 485.062 578.696C473.395 563.387 468.965 550.691 460.422 534.933C471.96 517.588 480.016 493.47 484.314 473.254Z"/><path fill="#f0f0f0" d="M512.627 158.405C517.728 159.7 530.624 167.864 535.315 171.054C525.567 177.193 521.693 180.291 513.646 188.162C512.569 187.548 504.381 180.051 502.65 178.635C498.237 175.024 495.266 173.18 490.459 170.181C497.694 165.972 505.089 162.044 512.627 158.405Z"/><path fill="#f0f0f0" d="M537.268 149.542C541.894 148.93 558.471 155.511 563.44 157.576C556.544 160.093 549.629 162.383 543.246 166.02L539.704 167.985C532.665 163.645 525.719 159.82 518.468 155.844C524.417 153.024 530.934 151.563 537.268 149.542Z"/><path fill="#f0f0f0" d="M487.227 149.003C490.492 149.42 505.413 155.051 508.346 156.295C504.01 158.052 499.76 160.013 495.611 162.174C493.421 163.313 487.139 167.345 485.277 167.157C477.465 162.497 471.141 160.507 462.633 157.415C467.443 154.957 481.376 150.843 487.227 149.003Z"/><path fill="#f0f0f0" d="M505.803 146.208C516.555 145.624 523.429 146.343 533.978 147.89C529.102 148.718 525.427 149.82 520.84 151.54L512.997 154.23C506.613 151.751 500.139 149.511 493.588 147.516C497.874 146.801 501.493 146.536 505.803 146.208Z"/></svg>
